<?xml version="1.0" encoding="UTF-8" standalone="no"?>
<!-- Created with Inkscape (http://www.inkscape.org/) -->

<svg
   version="1.1"
   id="svg1"
   width="1114.6667"
   height="1093.3333"
   viewBox="0 0 1114.6667 1093.3333"
   sodipodi:docname="d3_logo.svg"
   inkscape:version="1.4.2 (ebf0e940, 2025-05-08)"
   xmlns:inkscape="http://www.inkscape.org/namespaces/inkscape"
   xmlns:sodipodi="http://sodipodi.sourceforge.net/DTD/sodipodi-0.dtd"
   xmlns="http://www.w3.org/2000/svg"
   xmlns:svg="http://www.w3.org/2000/svg">
  <defs
     id="defs1" />
  <sodipodi:namedview
     id="namedview1"
     pagecolor="#ffffff"
     bordercolor="#000000"
     borderopacity="0.25"
     inkscape:showpageshadow="2"
     inkscape:pageopacity="0.0"
     inkscape:pagecheckerboard="0"
     inkscape:deskcolor="#d1d1d1"
     inkscape:zoom="0.22724246"
     inkscape:cx="750.29992"
     inkscape:cy="1027.5368"
     inkscape:window-width="1472"
     inkscape:window-height="920"
     inkscape:window-x="0"
     inkscape:window-y="36"
     inkscape:window-maximized="0"
     inkscape:current-layer="g1" />
  <g
     inkscape:groupmode="layer"
     inkscape:label="Image"
     id="g1">
    <g
       id="g2">
      <path
         style="fill:#f8fafb"
         d="m 179.82994,992.46526 c -1.38902,-1.67093 -1.92769,-8.83043 -2.2357,-29.71443 l -0.40577,-27.51309 -15.59423,-2.26609 c -25.36324,-3.68568 -44.59637,-9.64112 -54.64559,-16.92073 -7.683062,-5.56559 -9.61531,-11.62058 -9.61531,-30.13109 0,-17.73888 1.414692,-21.7336 10.88997,-30.75042 7.31687,-6.96284 13.16409,-10.26029 37.11003,-20.92764 10.63334,-4.7369 23.53334,-10.53127 28.66667,-12.87639 5.13334,-2.34512 36.33334,-16.26994 69.33334,-30.94405 33,-14.6741 63.15001,-28.08877 67.00001,-29.81036 l 7,-3.13016 v -143.8991 c 0,-123.47971 0.29087,-145.56711 2.04985,-155.65386 9.53631,-54.68524 48.47886,-101.61627 98.61682,-118.84659 23.01497,-7.90929 15.59268,-7.52427 155.00001,-8.04022 l 128.33334,-0.47497 v -39.01638 c 0,-28.56829 0.42846,-39.44483 1.6,-40.61638 2.4553,-2.45529 109.5056,-2.28427 111.54927,0.17821 0.98476,1.18656 1.59362,14.60639 1.82993,40.33333 l 0.35415,38.55513 55.33333,0.72717 c 46.50426,0.61115 57.03533,1.109 66.00001,3.1201 40.85061,9.16426 74.36083,31.70128 97.52683,65.59094 13.6732,20.00262 20.2881,35.39309 26.6136,61.9206 2.1885,9.17789 2.4151,21.26864 2.8368,151.38831 0.4357,134.47254 0.3412,141.51922 -1.9262,143.56168 -2.6306,2.36967 -2.9436,2.39065 -124.38436,8.33968 -37.03334,1.81416 -72.43334,3.63161 -78.66668,4.03878 -6.23333,0.40717 -37.43333,1.92084 -69.33334,3.36371 -31.9,1.44287 -83.8,3.82088 -115.33334,5.28446 -31.53333,1.46358 -57.48333,2.66184 -57.66667,2.6628 -0.18333,9.5e-4 -0.33333,4.08705 -0.33333,9.08023 0,5.23181 -0.70619,9.98583 -1.66667,11.2199 -0.91667,1.17778 -12.76667,7.22657 -26.33333,13.44176 -21.39427,9.80119 -60.88413,28.4132 -179.33335,84.52178 -14.66667,6.9475 -32.66667,14.6478 -40,17.11178 -16.36339,5.49804 -52.42155,13.01148 -79.65605,16.59793 -15.48453,2.03912 -54.59807,5.31247 -64.01063,5.35695 -0.55,0.003 -1,11.74417 -1,26.09238 0,15.43308 -0.56371,27.14095 -1.38025,28.66666 -1.27253,2.37775 -2.97661,2.57901 -21.83674,2.57901 -17.38727,0 -20.73105,-0.33028 -22.28642,-2.20133 z m 33.50341,-31.61294 v -23.14761 l -7,-0.8408 c -3.85,-0.46244 -9.25,-0.84602 -12,-0.85239 l -5,-0.0116 v 24 24 h 12 12 z M 286.00002,921.493 c 28.09134,-3.73605 64.65953,-11.2964 82.66667,-17.09106 3.66667,-1.17992 14.16667,-5.71997 23.33334,-10.089 9.16667,-4.36902 34.36667,-16.22358 56,-26.34345 21.63334,-10.11988 47.73334,-22.42436 58.00001,-27.3433 22.81152,-10.9294 40.95936,-19.53737 53.33333,-25.29732 5.13334,-2.38951 15.33334,-7.18124 22.66667,-10.64829 7.33334,-3.46706 15.95829,-7.44935 19.16657,-8.84954 l 5.83324,-2.5458 -0.89429,-5.59259 c -0.49186,-3.07593 -1.12759,-5.82589 -1.41273,-6.11103 -0.28514,-0.28514 -13.60766,5.61809 -29.60561,13.11829 -15.99795,7.5002 -43.78718,20.51724 -61.75385,28.92675 -17.96667,8.40951 -56.06667,26.25982 -84.66667,39.66736 -60.89566,28.54757 -67.25451,30.83295 -105.33334,37.85695 -68.03542,12.54976 -131.7234,14.24002 -179.09066,4.753 -13.89369,-2.78272 -20.19598,-4.75487 -34.57603,-10.81975 -2.22883,-0.94002 -2.12464,2.82918 0.20262,7.32961 4.77221,9.22842 33.2411,18.13413 68.79739,21.52138 21.41733,2.04031 84.4055,0.6071 107.33334,-2.44221 z m -44.66667,-21.52863 c 27.0609,-1.54268 37.19121,-2.715 70.00001,-8.1007 42.44473,-6.96747 55.18824,-11.14455 100.99542,-33.10443 10.81415,-5.18428 19.94773,-9.42597 20.29686,-9.42597 0.34912,0 13.70119,-6.23754 29.67125,-13.86119 15.97006,-7.62366 42.83648,-20.29802 59.70315,-28.16525 35.12225,-16.38229 57.15961,-27.27378 56.47321,-27.91065 -0.26026,-0.24148 -15.17321,-1.12009 -33.13988,-1.95247 -17.96666,-0.83237 -48.56667,-2.39153 -68,-3.46479 -19.43334,-1.07326 -55.13334,-2.88149 -79.33334,-4.0183 -24.2,-1.1368 -50.3,-2.60448 -58.00001,-3.26151 l -14,-1.19459 -12,5.42432 c -11.86679,5.36412 -36.05939,16.12078 -82.66667,36.75578 -111.34841,49.29861 -120.001,53.88641 -122.82109,65.1225 -2.77625,11.06148 23.83917,22.23833 61.48775,25.82109 30.96827,2.94704 40.08166,3.11775 71.33334,1.33616 z M 605.96892,728.99995 c 0.51752,-21.45 0.6801,-86.4 0.36128,-144.33333 -0.55465,-100.78744 -0.70008,-105.87998 -3.36981,-117.99999 -9.74902,-44.25852 -31.52923,-78.38729 -64.42668,-100.95418 -13.27297,-9.10494 -34.70651,-17.88419 -51.65097,-21.15639 -12.99398,-2.50932 -36.50157,-2.40228 -49.27225,0.22434 -39.94739,8.21624 -76.14209,37.61877 -95.05776,77.21957 -7.06925,14.79981 -9.66274,23.66285 -12.57207,42.96417 -1.63414,10.8414 -1.96624,36.31245 -1.97278,151.30873 l -0.008,138.27291 4.33334,0.72153 c 4.49189,0.74793 48.85,3.13753 127.00001,6.84155 24.93333,1.18175 59.73333,2.91039 77.33334,3.84142 17.6,0.93104 40.18128,1.77309 50.18063,1.87123 l 18.18063,0.17843 z m -67.30221,26.91253 c -23.83334,-1.32861 -61.93334,-3.36409 -84.66668,-4.52329 -79.52899,-4.05527 -113.34434,-6.32459 -115.04617,-7.72064 -1.37973,-1.13183 -1.63535,-28.65614 -1.31444,-141.53683 l 0.39838,-140.13175 3.62884,-13.22809 c 12.72945,-46.40224 46.70098,-81.75157 90.5881,-94.2621 9.4685,-2.69911 13.88847,-3.14368 30.41196,-3.0589 22.45142,0.11518 33.59459,2.52873 51.75347,11.2095 29.06129,13.89264 49.53505,34.19997 64.03592,63.51538 6.28325,12.7024 8.70639,19.92859 12.49048,37.24851 2.84684,13.0301 2.9006,15.46251 3.35384,151.75192 0.42756,128.56878 0.29886,138.6883 -1.79319,140.99999 -1.36952,1.5133 -3.87293,2.42403 -6.38049,2.3212 -2.26968,-0.0931 -23.62669,-1.25628 -47.46002,-2.5849 z m 25.33333,-65.294 c 7.7,-2.25035 15.2,-4.57906 16.66667,-5.17491 2.62503,-1.06646 2.66667,-2.33339 2.66667,-81.15144 0,-44.03744 -0.34566,-80.41414 -0.76812,-80.83712 -0.42246,-0.42298 -19.32246,4.58816 -42,11.13588 -72.35935,20.89239 -103.2316,30.65423 -103.23266,32.64227 -0.001,2.61113 40.53883,145.06798 41.91864,147.30057 0.36407,0.58908 16.43149,-3.63026 35.70538,-9.37632 19.27388,-5.74607 41.34342,-12.28858 49.04342,-14.53893 z M 459.78225,546.79202 c 21.75311,-6.53103 41.99323,-12.52511 44.97804,-13.32016 l 5.42691,-1.44557 5.57538,-22.3465 c 3.06646,-12.29057 8.31651,-32.75433 11.66678,-45.47502 3.35027,-12.72069 5.83423,-23.3857 5.5199,-23.70002 -1.60879,-1.6088 -115.51267,-17.05245 -116.73729,-15.82783 -0.3636,0.3636 -4.11134,22.11002 -8.32831,48.3254 -4.21697,26.21537 -9.03663,54.99359 -10.71035,63.9516 -1.67373,8.95801 -2.70611,16.62432 -2.29418,17.03625 0.73846,0.73846 18.14083,4.15796 22.90311,4.50038 1.34689,0.0968 20.24689,-5.1675 42.00001,-11.69853 z m 94.88446,-28.18313 c 7.7,-2.32524 17.3,-5.26383 21.33333,-6.5302 l 7.33334,-2.3025 -0.41175,-19.14348 c -0.41736,-19.40456 -2.13539,-30.106 -7.16544,-44.63274 -5.02722,-14.51859 -5.29089,-14.80698 -15.37424,-16.81509 -4.97672,-0.99112 -9.58875,-1.81318 -10.24895,-1.82681 -0.66021,-0.0136 -6.19662,19.47523 -12.30313,43.30856 -6.10651,23.83333 -11.44743,44.54801 -11.86869,46.03261 -0.6301,2.22054 0.25134,3.08759 4.96979,4.88871 3.15466,1.20419 6.63574,1.97776 7.73574,1.71904 1.1,-0.25872 8.3,-2.37287 16,-4.6981 z m 126.19643,247.36379 c 27.0253,-1.115 84.68692,-3.815 128.13692,-6 43.45,-2.18501 114.85001,-5.7715 158.66668,-7.97 43.81666,-2.19849 81.02556,-4.14849 82.68646,-4.33333 l 3.0197,-0.33607 -0,-133.33333 c -0.01,-144.86343 -0.07,-146.33332 -7.4971,-168.55528 -4.3384,-12.98153 -13.8387,-31.85604 -21.2934,-42.30449 -18.4168,-25.81276 -48.06817,-46.54181 -79.67733,-55.70178 -16.86708,-4.88789 -33.39293,-6.10509 -82.88823,-6.10509 l -44.37205,0 -2.18409,3.33333 -2.18408,3.33333 -33.3026,0 h -33.3026 l 0.0482,98.33333 0.0482,98.33333 6.90351,4.66666 c 33.17498,22.42577 25.10882,73.58938 -13.66667,86.68759 -23.09676,7.802 -49.23241,-3.49172 -59.49397,-25.70851 -3.38015,-7.3182 -3.8385,-9.82742 -3.83216,-20.97908 0.006,-11.15059 0.46997,-13.6707 3.87357,-21.05531 3.59334,-7.79626 16.09711,-21.61135 19.56001,-21.61135 0.73494,0 1.22588,-40.86555 1.22588,-102.04184 0,-80.40496 -0.35339,-102.17687 -1.66666,-102.67863 -0.91667,-0.35024 -41.86667,-0.48141 -91.00001,-0.29149 l -89.33334,0.3453 7.33334,3.81497 c 25.07675,13.04548 45.68892,31.47628 60.78128,54.34884 11.44164,17.33987 18.20191,32.83291 24.3637,55.83619 l 4.82158,17.99999 0.3997,146.99999 0.3997,146.99999 h 7.14678 c 3.93072,0 29.25838,-0.91227 56.28369,-2.02726 z M 735.53986,626.0131 c 18.39122,-5.46161 30.49376,-24.25958 27.10914,-42.10662 -4.55912,-24.04011 -26.04246,-37.8691 -48.62916,-31.30297 -10.65915,3.0987 -22.15322,14.37048 -25.23459,24.74659 -4.19346,14.12088 -1.73475,26.16618 7.47732,36.63164 10.6948,12.14993 24.568,16.39954 39.27729,12.03136 z m -20.06767,-19.70175 c -7.23753,-4.14932 -10.44036,-10.4789 -9.77696,-19.32165 0.38016,-5.06742 1.41908,-7.97884 3.7487,-10.50517 6.83315,-7.41013 17.79794,-9.21378 25.23635,-4.15124 7.15017,4.86636 9.98644,9.69457 9.98644,17 0,7.30543 -2.83627,12.13364 -9.98644,17 -5.62351,3.82732 -12.50768,3.81946 -19.20809,-0.0219 z m 15.19453,-11.64473 c 4.21987,-4.21987 3.16863,-10.03489 -2.18185,-12.06913 -6.69368,-2.54494 -12.4082,2.88045 -10.6043,10.06777 1.24629,4.96563 8.66125,6.12626 12.78615,2.00136 z m 4.70533,-83.99999 c 0.54587,-16.5 0.63665,-61.37617 0.20174,-99.72482 -0.74396,-65.59922 -0.65076,-69.86481 1.57509,-72.09066 2.1698,-2.16981 5.09442,-2.31928 35.29585,-1.80399 l 32.93001,0.56186 -0.35401,-38.47119 -0.354,-38.47118 -46.33334,-0.35061 -46.33334,-0.35061 v 136.51726 c 0,75.0845 0.34556,138.24507 0.76791,140.35683 0.76765,3.83823 0.77152,3.83956 11.18976,3.83333 l 10.42184,-0.006 z"
         id="path4" />
      <path
         style="fill:#61b1d5"
         d="M 0,546.66663 V 0 H 557.33337 1114.6667 V 546.66663 1093.3333 H 557.33337 0 Z m 223.9531,445.42095 c 0.81654,-1.52571 1.38025,-13.23358 1.38025,-28.66666 0,-14.34821 0.45,-26.08978 1,-26.09238 9.41256,-0.0445 48.5261,-3.31783 64.01063,-5.35695 27.2345,-3.58645 63.29266,-11.09989 79.65605,-16.59793 7.33333,-2.46398 25.33333,-10.16428 40,-17.11178 118.44922,-56.10858 157.93908,-74.72059 179.33335,-84.52178 13.56666,-6.21519 25.41666,-12.26398 26.33333,-13.44176 0.96048,-1.23407 1.66667,-5.98809 1.66667,-11.2199 0,-4.99318 0.15,-9.07928 0.33333,-9.08023 0.18334,-9.6e-4 26.13334,-1.19922 57.66667,-2.6628 31.53334,-1.46358 83.43334,-3.84159 115.33334,-5.28446 31.90001,-1.44287 63.10001,-2.95654 69.33334,-3.36371 6.23334,-0.40717 41.63334,-2.22462 78.66668,-4.03878 121.44076,-5.94903 121.75376,-5.97001 124.38436,-8.33968 2.2674,-2.04246 2.3619,-9.08914 1.9262,-143.56168 -0.4217,-130.11967 -0.6483,-142.21042 -2.8368,-151.38831 -6.3255,-26.52751 -12.9404,-41.91798 -26.6136,-61.9206 -23.166,-33.88966 -56.67622,-56.42668 -97.52683,-65.59094 -8.96468,-2.0111 -19.49575,-2.50895 -66.00001,-3.1201 l -55.33333,-0.72717 -0.35415,-38.55513 c -0.23631,-25.72694 -0.84517,-39.14677 -1.82993,-40.33333 -2.04367,-2.46248 -109.09397,-2.6335 -111.54927,-0.17821 -1.17154,1.17155 -1.6,12.04809 -1.6,40.61638 v 39.01638 l -128.33334,0.47497 c -139.40733,0.51595 -131.98504,0.13093 -155.00001,8.04022 -50.13796,17.23032 -89.08051,64.16135 -98.61682,118.84659 -1.75898,10.08675 -2.04985,32.17415 -2.04985,155.65386 v 143.8991 l -7,3.13016 c -3.85,1.72159 -34.00001,15.13626 -67.00001,29.81036 -33,14.67411 -64.2,28.59893 -69.33334,30.94405 -5.13333,2.34512 -18.03333,8.13949 -28.66667,12.87639 -23.94594,10.66735 -29.79316,13.9648 -37.11003,20.92764 -9.475278,9.01682 -10.88997,13.01154 -10.88997,30.75042 0,18.51051 1.932248,24.5655 9.61531,30.13109 10.04922,7.27961 29.28235,13.23505 54.64559,16.92073 l 15.59423,2.26609 0.40577,27.51309 c 0.30801,20.884 0.84668,28.0435 2.2357,29.71443 1.55537,1.87105 4.89915,2.20133 22.28642,2.20133 18.86013,0 20.56421,-0.20126 21.83674,-2.57901 z m -34.61975,-32.08765 v -24 l 5,0.0116 c 2.75,0.006 8.15,0.38995 12,0.85239 l 7,0.8408 v 23.14761 23.14761 h -12 -12 z m -10.66667,-36.06472 c -35.55629,-3.38725 -64.02518,-12.29296 -68.79739,-21.52138 -2.32726,-4.50043 -2.43145,-8.26963 -0.20262,-7.32961 14.38005,6.06488 20.68234,8.03703 34.57603,10.81975 47.36726,9.48702 111.05524,7.79676 179.09066,-4.753 38.07883,-7.024 44.43768,-9.30938 105.33334,-37.85695 28.6,-13.40754 66.7,-31.25785 84.66667,-39.66736 17.96667,-8.40951 45.7559,-21.42655 61.75385,-28.92675 15.99795,-7.5002 29.32047,-13.40343 29.60561,-13.11829 0.28514,0.28514 0.92087,3.0351 1.41273,6.11103 l 0.89429,5.59259 -5.83324,2.5458 c -3.20828,1.40019 -11.83323,5.38248 -19.16657,8.84954 -7.33333,3.46705 -17.53333,8.25878 -22.66667,10.64829 -12.37397,5.75995 -30.52181,14.36792 -53.33333,25.29732 -10.26667,4.91894 -36.36667,17.22342 -58.00001,27.3433 -21.63333,10.11987 -46.83333,21.97443 -56,26.34345 -22.45372,10.70191 -31.66631,13.52086 -68.66667,21.01118 -32.9265,6.66562 -54.51151,8.79143 -94.66668,9.32328 -20.53333,0.27197 -43.03333,-0.0485 -50,-0.71219 z m 11.33333,-23.48075 c -55.52749,-4.48239 -84.80838,-14.41687 -81.48775,-27.64734 2.82009,-11.23609 11.47268,-15.82389 122.82109,-65.1225 46.60728,-20.635 70.79988,-31.39166 82.66667,-36.75578 l 12,-5.42432 14,1.19459 c 7.70001,0.65703 33.80001,2.12471 58.00001,3.26151 24.2,1.13681 59.9,2.94504 79.33334,4.0183 19.43333,1.07326 50.03334,2.63242 68,3.46479 17.96667,0.83238 32.87962,1.71099 33.13988,1.95247 0.6864,0.63687 -21.35096,11.52836 -56.47321,27.91065 -16.86667,7.86723 -43.73309,20.54159 -59.70315,28.16525 -15.97006,7.62365 -29.32213,13.86119 -29.67125,13.86119 -0.34913,0 -9.48271,4.24169 -20.29686,9.42597 -32.37891,15.52239 -46.07005,21.10176 -61.92514,25.23556 -14.64147,3.81738 -51.40937,10.35225 -74.40362,13.22398 -23.77572,2.96933 -68.46879,4.65087 -86.00001,3.23568 z m 346.6667,-134.50418 c -17.60001,-0.93103 -52.40001,-2.65967 -77.33334,-3.84142 -78.15001,-3.70402 -122.50812,-6.09362 -127.00001,-6.84155 l -4.33334,-0.72153 0.008,-138.27291 c 0.007,-114.99628 0.33864,-140.46733 1.97278,-151.30873 2.90933,-19.30132 5.50282,-28.16436 12.57207,-42.96417 18.91567,-39.6008 55.11037,-69.00333 95.05776,-77.21957 12.77068,-2.62662 36.27827,-2.73366 49.27225,-0.22434 16.94446,3.2722 38.378,12.05145 51.65097,21.15639 32.89745,22.56689 54.67766,56.69566 64.42668,100.95418 2.66973,12.12001 2.81516,17.21255 3.36981,117.99999 0.31882,57.93333 0.15624,122.88333 -0.36128,144.33333 l -0.94095,38.99999 -18.18063,-0.17843 c -9.99935,-0.0981 -32.58063,-0.94019 -50.18063,-1.87123 z m 55.84051,-9.7741 c 2.09205,-2.31169 2.22075,-12.43121 1.79319,-140.99999 -0.45324,-136.28941 -0.507,-138.72182 -3.35384,-151.75192 -3.78409,-17.31992 -6.20723,-24.54611 -12.49048,-37.24851 -14.50087,-29.31541 -34.97463,-49.62274 -64.03592,-63.51538 -18.15888,-8.68077 -29.30205,-11.09432 -51.75347,-11.2095 -16.52349,-0.0848 -20.94346,0.35979 -30.41196,3.0589 -43.88712,12.51053 -77.85865,47.85986 -90.5881,94.2621 l -3.62884,13.22809 -0.39838,140.13175 c -0.32091,112.88069 -0.0653,140.405 1.31444,141.53683 1.70183,1.39605 35.51718,3.66537 115.04617,7.72064 22.73334,1.1592 60.83334,3.19468 84.66668,4.52329 23.83333,1.32862 45.19034,2.49182 47.46002,2.5849 2.50756,0.10283 5.01097,-0.8079 6.38049,-2.3212 z M 479.25124,714.53373 c -1.37981,-2.23259 -41.92004,-144.68944 -41.91864,-147.30057 0.001,-1.98804 30.87331,-11.74988 103.23266,-32.64227 22.67754,-6.54772 41.57754,-11.55886 42,-11.13588 0.42246,0.42298 0.76812,36.79968 0.76812,80.83712 0,78.81805 -0.0416,80.08498 -2.66667,81.15144 -1.46667,0.59585 -8.96667,2.92456 -16.66667,5.17491 -7.7,2.25035 -29.76954,8.79286 -49.04342,14.53893 -19.27389,5.74606 -35.34131,9.9654 -35.70538,9.37632 z M 405.48073,556.5268 c -5.41895,-0.98322 -10.18967,-2.1247 -10.6016,-2.53663 -0.41193,-0.41193 0.62045,-8.07824 2.29418,-17.03625 1.67372,-8.95801 6.49338,-37.73623 10.71035,-63.9516 4.21697,-26.21538 7.96471,-47.9618 8.32831,-48.3254 1.22462,-1.22462 115.1285,14.21903 116.73729,15.82783 0.31433,0.31432 -2.16963,10.97933 -5.5199,23.70002 -3.35027,12.72069 -8.60032,33.18445 -11.66678,45.47502 l -5.57538,22.3465 -5.42691,1.44557 c -2.98481,0.79505 -23.22493,6.78913 -44.97804,13.32016 -21.75312,6.53103 -40.65312,11.79537 -42.00001,11.69853 -1.34688,-0.0969 -6.88256,-0.98053 -12.30151,-1.96375 z m 125.45024,-34.93885 c -4.71845,-1.80112 -5.59989,-2.66817 -4.96979,-4.88871 0.42126,-1.4846 5.76218,-22.19928 11.86869,-46.03261 6.10651,-23.83333 11.64292,-43.32218 12.30313,-43.30856 0.6602,0.0136 5.27223,0.83569 10.24895,1.82681 10.08335,2.00811 10.34702,2.2965 15.37424,16.81509 5.03005,14.52674 6.74808,25.22818 7.16544,44.63274 l 0.41175,19.14348 -7.33334,2.3025 c -11.17446,3.50852 -35.08011,10.69834 -37.33333,11.2283 -1.1,0.25872 -4.58108,-0.51485 -7.73574,-1.71904 z m 86.102,99.412 -0.3997,-146.99999 -4.82158,-17.99999 c -6.16179,-23.00328 -12.92206,-38.49632 -24.3637,-55.83619 -15.09236,-22.87256 -35.70453,-41.30336 -60.78128,-54.34884 l -7.33334,-3.81497 89.33334,-0.3453 c 49.13334,-0.18992 90.08334,-0.0588 91.00001,0.29149 1.31327,0.50176 1.66666,22.27367 1.66666,102.67863 0,61.17629 -0.49094,102.04184 -1.22588,102.04184 -3.4629,0 -15.96667,13.81509 -19.56001,21.61135 -3.4036,7.38461 -3.86723,9.90472 -3.87357,21.05531 -0.006,11.15166 0.45201,13.66088 3.83216,20.97908 10.26156,22.21679 36.39721,33.51051 59.49397,25.70851 19.85532,-6.70705 32.88616,-23.46139 34.3693,-44.19017 1.17175,-16.37676 -7.0605,-33.27555 -20.70263,-42.49742 l -6.90351,-4.66666 -0.0482,-98.33333 -0.0482,-98.33333 h 33.3026 l 33.3026,0 2.18408,-3.33333 2.18409,-3.33333 44.37205,0 c 49.4953,0 66.02115,1.2172 82.88823,6.10509 31.60916,9.15997 61.26053,29.88902 79.67733,55.70178 7.4547,10.44845 16.955,29.32296 21.2934,42.30449 7.4266,22.22196 7.492,23.69185 7.4971,168.55528 l 0,133.33333 -3.0197,0.33607 c -1.6609,0.18484 -38.8698,2.13484 -82.68646,4.33333 -43.81667,2.1985 -115.21668,5.78499 -158.66668,7.97 -81.28538,4.08766 -171.795,8.02726 -184.42061,8.02726 h -7.14678 z m 98.96708,5.75317 c -16.82402,-5.13618 -29.33333,-20.8078 -29.33333,-36.74868 0,-10.82553 3.62087,-19.17202 11.91563,-27.46678 6.14012,-6.14012 9.23313,-8.13049 15.43749,-9.93415 17.35283,-5.04461 36.6281,2.95966 44.3472,18.41567 6.86446,13.74473 6.41012,26.70006 -1.36138,38.81996 -8.7307,13.6158 -27.05324,21.17347 -41.00561,16.91398 z m 18.68023,-20.41983 c 7.15017,-4.86636 9.98644,-9.69457 9.98644,-17 0,-7.30543 -2.83627,-12.13364 -9.98644,-17 -7.43841,-5.06254 -18.4032,-3.25889 -25.23635,4.15124 -4.44303,4.8182 -5.28469,15.66995 -1.72045,22.18209 5.29009,9.6654 18.49994,13.42235 26.9568,7.66667 z m -13.67932,-9.91893 c -5.22346,-1.36517 -4.38933,-11.69906 1.11318,-13.79111 8.40173,-3.19434 14.79191,5.80404 8.55258,12.04337 -2.59277,2.59278 -4.8623,3.00315 -9.66576,1.74774 z"
         id="path3" />
      <path
         style="fill:#d92d30"
         d="m 712.80269,536.0057 c -0.42531,-2.56982 -0.77989,-65.73018 -0.78796,-140.35634 l -0.0147,-135.68393 46.33334,0.35061 46.33334,0.35061 v 37.99999 38 h -33.107 c -30.85589,0 -33.23158,0.17033 -34.93921,2.50503 -1.52293,2.08217 -1.69917,14.23601 -1.0441,72 0.43347,38.22223 0.3415,82.99496 -0.20437,99.49496 l -0.99249,30 -10.40179,0.006 -10.40179,0.006 z"
         id="path2" />
    </g>
  </g>
</svg>
